<svg width="102" height="30" viewBox="0 0 102 30" fill="none" xmlns="http://www.w3.org/2000/svg">
<path d="M80.1979 9.74175H80.186C80.1444 9.21879 79.8892 8.7487 79.4321 8.48428C78.6544 8.0377 77.6097 8.38439 77.1051 9.24817C76.9092 9.5831 76.8261 9.94742 76.838 10.2941H76.832V24.9489H76.8439C76.8142 25.5542 77.0814 26.13 77.5978 26.4297C78.3754 26.8763 79.4202 26.5296 79.9248 25.6658C80.0613 25.4367 80.1385 25.1957 80.1741 24.9489H80.1979V9.74175Z" fill="#FCFCFC"/>
<path d="M29.7173 12.9765C29.7173 10.679 28.643 8.54596 26.6605 7.41188C23.5445 5.63144 19.3778 7.00643 17.3538 10.4792C16.6178 11.7425 16.2617 13.1116 16.2617 14.422V18.6116H16.2677C16.2677 20.9091 17.342 23.0422 19.3244 24.1762C22.4405 25.9567 26.6071 24.5875 28.637 21.1089C29.373 19.8456 29.7232 18.4823 29.7232 17.1661L29.7173 12.9765ZM26.3578 17.1661C26.3578 17.9417 26.1382 18.7291 25.7228 19.446C24.9512 20.7681 23.6038 21.626 22.298 21.626C21.8291 21.626 21.3958 21.5144 21.0041 21.2911C20.1435 20.7975 19.633 19.7986 19.633 18.6116V15.2799H19.6271V14.422C19.6271 13.6522 19.8467 12.8648 20.2681 12.1421C21.0397 10.82 22.3811 9.96208 23.6928 9.96208C24.1617 9.96208 24.595 10.0737 24.9808 10.297C25.8415 10.7906 26.3519 11.7895 26.3519 12.9765V16.3082H26.3578V17.1661Z" fill="#FCFCFC"/>
<path d="M44.864 11.6569C44.8877 11.0458 44.6206 10.4817 44.0983 10.182C43.3149 9.73547 42.2643 10.0822 41.7479 10.9577C41.5936 11.2162 41.5224 11.4865 41.4927 11.7627V15.494C41.4927 16.2696 41.2731 17.057 40.8576 17.7739C40.086 19.096 38.7387 19.9539 37.4329 19.9539C36.964 19.9539 36.5307 19.8423 36.1389 19.619C35.2783 19.1254 34.7679 18.1265 34.7679 16.9395V9.99402C34.7916 9.38291 34.5245 8.81881 34.0022 8.51913C33.2187 8.07255 32.1682 8.41924 31.6518 9.29477C31.4975 9.55331 31.4262 9.82361 31.3966 10.0998L31.3906 16.9454H31.3966C31.3966 19.2429 32.4709 21.3759 34.4533 22.51C37.5694 24.2904 41.736 22.9213 43.7659 19.4427C44.5019 18.1793 44.8521 16.8161 44.8521 15.4999L44.864 11.6569Z" fill="#FCFCFC"/>
<path d="M46.5493 19.9457C46.5256 20.5568 46.7927 21.1209 47.315 21.4206C48.0984 21.8672 49.149 21.5205 49.6654 20.645C49.8197 20.3864 49.8909 20.1161 49.9206 19.8399V16.1087C49.9206 15.333 50.1402 14.5456 50.5557 13.8288C51.3273 12.5066 52.6746 11.6487 53.9804 11.6487C54.4493 11.6487 54.8826 11.7604 55.2744 11.9837C56.135 12.4773 56.6454 13.4762 56.6454 14.6631V21.6086C56.6217 22.2197 56.8888 22.7838 57.4111 23.0835C58.1946 23.5301 59.2451 23.1834 59.7615 22.3079C59.9158 22.0493 59.9871 21.779 60.0167 21.5029L60.0227 14.6573H60.0167C60.0167 12.3597 58.9424 10.2267 56.96 9.09266C53.8439 7.31222 49.6773 8.68134 47.6474 12.16C46.9114 13.4233 46.5612 14.7865 46.5612 16.1028L46.5493 19.9457Z" fill="#FCFCFC"/>
<path d="M75.1523 12.9963V3.32438H75.1405C75.1642 2.71915 74.9031 2.14918 74.3867 1.85537C73.6091 1.40879 72.5645 1.75548 72.06 2.61926C71.8819 2.93069 71.7929 3.26562 71.7929 3.58293H71.787V7.27308C68.7065 5.74531 64.7476 7.13206 62.7889 10.4932C62.0529 11.7565 61.6968 13.1256 61.6968 14.436V18.6256H61.7027C61.7027 20.9231 62.777 23.0561 64.7594 24.1902C67.8755 25.9706 72.0422 24.6015 74.0721 21.1229C74.8081 19.8596 75.1583 18.4963 75.1583 17.1801L75.1523 12.9963H75.1464H75.1523ZM71.787 17.186C71.787 17.9616 71.5674 18.749 71.1519 19.4659C70.3803 20.788 69.0329 21.6459 67.7272 21.6459C67.2583 21.6459 66.825 21.5342 66.4332 21.3109C65.5726 20.8174 65.0622 19.8184 65.0622 18.6315V15.2998H65.0562V14.4419C65.0562 13.6721 65.2758 12.8847 65.6972 12.1619C66.4688 10.8398 67.8102 9.98194 69.122 9.98194C69.5909 9.98194 70.0242 10.0936 70.41 10.3169C71.2706 10.8105 71.781 11.8094 71.781 12.9963V16.3281H71.787V17.186Z" fill="#FCFCFC"/>
<path d="M11.6316 15.0474C11.3645 14.8946 11.0915 14.7654 10.8125 14.6537H10.8066V14.6479C10.8007 14.6479 10.7888 14.642 10.7769 14.6361L5.48849 12.2681C5.35791 12.2152 5.23327 12.1505 5.10862 12.08C4.2658 11.5982 3.67819 10.752 3.45858 9.6826C3.20929 8.47214 3.44671 7.16178 4.12928 5.98657C5.06708 4.38241 6.70525 3.34823 8.30781 3.34823C8.90135 3.34823 9.45334 3.49513 9.95191 3.77718C10.7888 4.25901 11.3764 5.10516 11.596 6.1746C11.6435 6.40965 11.6732 6.65056 11.6851 6.89148H11.691C11.7207 7.41445 11.9818 7.89041 12.4388 8.14895C13.2105 8.58966 14.2432 8.24885 14.7477 7.39094C14.9673 7.009 15.0504 6.5918 15.0029 6.20398C14.7477 3.98872 13.5784 2.00849 11.6316 0.892043C8.14755 -1.09994 3.48232 0.433711 1.215 4.32365C-1.04639 8.20771 -0.0611152 12.9732 3.42297 14.9652C3.69006 15.1179 3.96309 15.2472 4.24205 15.3647C4.24205 15.3647 4.24205 15.3647 4.24799 15.3647L9.56611 17.7504C9.59579 17.7563 9.62547 17.768 9.64921 17.7857C9.75605 17.8268 9.85101 17.8797 9.95191 17.9326C10.7888 18.4144 11.3764 19.2664 11.596 20.33C11.8453 21.5404 11.6079 22.8567 10.9253 24.026C9.98753 25.6302 8.34935 26.6644 6.7468 26.6644C6.15325 26.6644 5.60126 26.5233 5.10862 26.2413C4.2658 25.7594 3.67819 24.9074 3.45858 23.8439C3.4111 23.6088 3.38142 23.3679 3.36955 23.127C3.33394 22.604 3.07278 22.1339 2.61575 21.8754C1.84415 21.4347 0.811389 21.7755 0.30688 22.6393C0.0872698 23.0212 0.00417417 23.4384 0.0516574 23.8204C0.30688 26.0356 1.47615 28.0158 3.42297 29.1264C6.90705 31.1184 11.5723 29.5789 13.8396 25.6948C16.1069 21.8049 15.1157 17.0394 11.6316 15.0474Z" fill="#FCFCFC"/>
<path d="M79.4321 3.29678C78.6545 2.8502 77.6097 3.19689 77.1051 4.06067C76.6006 4.93032 76.8202 5.99388 77.5978 6.44046C78.3755 6.88704 79.4203 6.54035 79.9248 5.67658C80.4353 4.80692 80.2098 3.73748 79.4321 3.29678Z" fill="#FCFCFC"/>
<path d="M92.8416 18.2028C91.0373 17.1736 89.0544 16.6914 87.0716 16.6914C85.2792 16.6914 83.481 17.0913 81.8018 17.8441V19.9142V20.8199C81.9268 24.1015 83.5822 27.1478 86.4999 28.8004C87.935 29.6178 89.5189 30.0001 91.1028 30.0001C93.8122 30.0001 96.5334 28.8768 98.5996 26.842C98.0697 23.2664 96.0809 20.0495 92.8416 18.2028Z" fill="#FFD60A"/>
<path d="M94.4018 2.73466V0.158787C93.8301 0.052929 93.2525 0 92.6749 0C89.0486 0 85.4044 2.00542 83.3381 5.52225C82.3735 7.16893 81.8733 8.93911 81.7959 10.6799V11.5856V15.4023C82.1115 15.4258 82.4211 15.4435 82.7367 15.4435C84.7196 15.4435 86.7084 14.9554 88.5067 13.9321C92.1688 11.8443 94.241 8.00991 94.3958 3.88146V2.73466H94.4018Z" fill="#007AF0"/>
<path d="M101.059 23.2606C101.69 21.8197 102 20.3201 102 18.8498V9.6108C102 7.07021 101.089 4.64136 99.3858 2.84766C98.0937 3.76509 96.9802 4.94129 96.1465 6.37037C95.1045 8.15231 94.6162 10.1107 94.6162 12.0691C94.6162 16.3445 96.9504 20.6494 101.059 23.2606Z" fill="#1FAD4F"/>
</svg>
