<svg width="24" height="16" viewBox="0 0 24 16" fill="none" xmlns="http://www.w3.org/2000/svg">
<path d="M23 5.7095C23.0495 4.27815 22.7365 2.85751 22.09 1.5795C21.6514 1.05509 21.0427 0.701206 20.37 0.579496C17.5875 0.327021 14.7936 0.22354 12 0.269496C9.21667 0.221454 6.43274 0.321596 3.66003 0.569496C3.11185 0.669213 2.60454 0.926338 2.20003 1.3095C1.30003 2.1395 1.20003 3.5595 1.10003 4.7595C0.954939 6.91706 0.954939 9.08193 1.10003 11.2395C1.12896 11.9149 1.22952 12.5853 1.40003 13.2395C1.5206 13.7446 1.76455 14.2118 2.11003 14.5995C2.51729 15.003 3.03641 15.2747 3.60003 15.3795C5.75594 15.6456 7.92824 15.7559 10.1 15.7095C13.6 15.7595 16.67 15.7095 20.3 15.4295C20.8775 15.3311 21.4112 15.059 21.83 14.6495C22.11 14.3694 22.3191 14.0266 22.44 13.6495C22.7977 12.5521 22.9733 11.4036 22.96 10.2495C23 9.6895 23 6.3095 23 5.7095ZM9.74003 10.8495V4.6595L15.66 7.7695C14 8.6895 11.81 9.7295 9.74003 10.8495Z" fill="#FCFCFC"/>
</svg>
