<svg width="16" height="16" viewBox="0 0 16 16" fill="none" xmlns="http://www.w3.org/2000/svg">
<path d="M1.92306 0.015625C0.860348 0.015625 0.000171932 0.877349 0 1.93765C0 2.99899 0.860176 3.86054 1.92323 3.86054C2.98337 3.86054 3.84474 2.99899 3.84474 1.93765C3.84474 0.877177 2.98319 0.015625 1.92306 0.015625Z" fill="#14181B"/>
<path d="M3.5807 5.32031H0.264648V15.9894H3.5807V5.32031Z" fill="#14181B"/>
<path d="M12.0225 5.05469C10.4094 5.05469 9.32781 5.93911 8.88509 6.77779H8.84073V5.31998H5.66033H5.66016V15.9889H8.97329V10.7109C8.97329 9.31946 9.23824 7.97169 10.9634 7.97169C12.6638 7.97169 12.6865 9.56309 12.6865 10.8001V15.9887H16.0002V10.1368C16.0002 7.26436 15.3803 5.05469 12.0225 5.05469Z" fill="#14181B"/>
</svg>
