<svg width="18" height="22" viewBox="0 0 18 22" fill="none" xmlns="http://www.w3.org/2000/svg">
<path d="M17.46 8.63C17.3196 7.16892 16.8032 5.76909 15.9612 4.56682C15.1191 3.36456 13.9801 2.40083 12.655 1.7695C11.3299 1.13816 9.86388 0.860724 8.39972 0.964207C6.93555 1.06769 5.52314 1.54856 4.3 2.36C3.2492 3.06265 2.36706 3.9893 1.71695 5.07339C1.06684 6.15749 0.664898 7.37211 0.540003 8.63C0.417485 9.87966 0.574677 11.1409 1.00017 12.3223C1.42567 13.5036 2.1088 14.5755 3 15.46L8.3 20.77C8.39297 20.8637 8.50357 20.9381 8.62543 20.9889C8.74729 21.0397 8.87799 21.0658 9.01 21.0658C9.14201 21.0658 9.27272 21.0397 9.39458 20.9889C9.51644 20.9381 9.62704 20.8637 9.72 20.77L15 15.46C15.8912 14.5755 16.5743 13.5036 16.9998 12.3223C17.4253 11.1409 17.5825 9.87966 17.46 8.63V8.63ZM13.6 14.05L9 18.65L4.4 14.05C3.72209 13.3721 3.20281 12.5523 2.87947 11.6498C2.55614 10.7472 2.43679 9.7842 2.53 8.83C2.62382 7.86111 2.93177 6.92516 3.43157 6.08985C3.93138 5.25453 4.61056 4.54071 5.42 4C6.48095 3.29524 7.72631 2.9193 9 2.9193C10.2737 2.9193 11.5191 3.29524 12.58 4C13.387 4.53862 14.0647 5.24928 14.5644 6.08094C15.064 6.9126 15.3733 7.84461 15.47 8.81C15.5663 9.76743 15.4484 10.7343 15.125 11.6406C14.8016 12.5468 14.2807 13.3698 13.6 14.05V14.05ZM9 5C8.10999 5 7.23996 5.26392 6.49994 5.75839C5.75992 6.25286 5.18314 6.95566 4.84255 7.77793C4.50195 8.6002 4.41284 9.505 4.58647 10.3779C4.7601 11.2508 5.18869 12.0526 5.81802 12.682C6.44736 13.3113 7.24918 13.7399 8.1221 13.9135C8.99501 14.0872 9.89981 13.9981 10.7221 13.6575C11.5443 13.3169 12.2471 12.7401 12.7416 12.0001C13.2361 11.26 13.5 10.39 13.5 9.5C13.4974 8.30734 13.0224 7.16428 12.1791 6.32094C11.3357 5.4776 10.1927 5.00265 9 5V5ZM9 12C8.50555 12 8.0222 11.8534 7.61108 11.5787C7.19995 11.304 6.87952 10.9135 6.6903 10.4567C6.50109 9.9999 6.45158 9.49723 6.54804 9.01228C6.6445 8.52733 6.88261 8.08187 7.23224 7.73224C7.58187 7.38261 8.02732 7.1445 8.51228 7.04804C8.99723 6.95158 9.4999 7.00109 9.95671 7.1903C10.4135 7.37952 10.804 7.69996 11.0787 8.11108C11.3534 8.5222 11.5 9.00555 11.5 9.5C11.5 10.163 11.2366 10.7989 10.7678 11.2678C10.2989 11.7366 9.66304 12 9 12V12Z" fill="#FCFCFC"/>
</svg>
