<svg width="16" height="14" viewBox="0 0 16 14" fill="none" xmlns="http://www.w3.org/2000/svg">
<path d="M15.9814 2.03674C15.9584 2.0097 15.9206 2.00052 15.8883 2.01527C15.4099 2.22748 14.9067 2.38005 14.3884 2.47018C14.9386 2.05624 15.3487 1.48301 15.5589 0.825721C15.5691 0.794257 15.5586 0.759844 15.5329 0.73936C15.507 0.718876 15.4711 0.716254 15.4427 0.733133C14.823 1.1007 14.1517 1.35978 13.4468 1.5035C12.8221 0.855218 11.9498 0.484375 11.047 0.484375C9.21099 0.484375 7.71745 1.97791 7.71745 3.81377C7.71745 4.03582 7.73892 4.25573 7.78153 4.46926C5.23856 4.31227 2.86077 3.09142 1.24401 1.1084C1.22745 1.08808 1.20238 1.07677 1.17616 1.0794C1.15011 1.08136 1.12684 1.09611 1.11373 1.11856C0.818757 1.6246 0.662915 2.20356 0.662915 2.79252C0.662915 3.81328 1.12667 4.76767 1.91637 5.39743C1.50981 5.3486 1.11274 5.22061 0.754683 5.02183C0.730594 5.00823 0.700605 5.0084 0.676516 5.02233C0.652427 5.03609 0.637187 5.06166 0.636531 5.08951L0.636204 5.13212C0.636204 6.59812 1.60223 7.88534 2.97663 8.31272C2.61463 8.37106 2.23904 8.36712 1.86983 8.29666C1.84263 8.29158 1.81412 8.30092 1.79544 8.3219C1.77692 8.34287 1.77069 8.3722 1.77921 8.39875C2.19135 9.68515 3.33649 10.5873 4.66943 10.6997C3.55755 11.5143 2.2433 11.9435 0.854645 11.9435C0.598841 11.9435 0.341234 11.9282 0.0888702 11.8986C0.0528183 11.8945 0.0170941 11.9159 0.00463985 11.9505C-0.00781445 11.9854 0.00545921 12.0244 0.0365949 12.0443C1.5393 13.008 3.27684 13.5171 5.06157 13.5171C10.8995 13.5171 14.388 8.775 14.388 4.19051C14.388 4.06285 14.3856 3.93585 14.3805 3.80918C15.0103 3.34853 15.5509 2.78465 15.9868 2.13195C16.0063 2.10278 16.0041 2.06394 15.9814 2.03674Z" fill="#14181B"/>
</svg>
